# xmcd
#
# Track frame offsets: 
#        150
#        16024
#        35677
#        52201
#        72328
#        96489
#        121743
#        145119
#        162997
#        183154
#        202078
#        231764
#
# Disc length: 3357 seconds
#
# Revision: 0
# Processed by: cddbd v1.5.2PL0 Copyright (c) Steve Scherf et al.
# Submitted via: ExactAudioCopy v1.0b4
#
DISCID=a80d1b0c
DTITLE=Lazer Lloyd - Lazer Lloyd
DYEAR=2015
DGENRE=Blues Rock
TTITLE0=Burning Thunder
TTITLE1=Suffering
TTITLE2=Rockin' In The Holy Land
TTITLE3=Never Give Up
TTITLE4=Out Of Time
TTITLE5=Broken Dreams
TTITLE6=Set My Soul Free
TTITLE7=(Sittin' On) The Dock Of The Bay
TTITLE8=Moroccan Women
TTITLE9=Love Yourself
TTITLE10=Time To Love
TTITLE11=Whole Heart
EXTD=
EXTT0=
EXTT1=
EXTT2=
EXTT3=
EXTT4=
EXTT5=
EXTT6=
EXTT7=
EXTT8=
EXTT9=
EXTT10=
EXTT11=
PLAYORDER=
